<?xml version="1.0" standalone="no"?>
<!DOCTYPE svg PUBLIC "-//W3C//DTD SVG 20010904//EN"
 "http://www.w3.org/TR/2001/REC-SVG-20010904/DTD/svg10.dtd">
<svg version="1.0" xmlns="http://www.w3.org/2000/svg"
 width="166.000000pt" height="166.000000pt" viewBox="0 0 166.000000 166.000000"
 preserveAspectRatio="xMidYMid meet">
<metadata>
Created by potrace 1.14, written by Peter Selinger 2001-2017
</metadata>
<g transform="translate(0.000000,166.000000) scale(0.100000,-0.100000)"
fill="#000000" stroke="none">
<path d="M675 1534 c-135 -19 -258 -64 -320 -117 -17 -14 -44 -49 -60 -79 -27
-48 -30 -61 -30 -148 0 -89 2 -100 38 -174 122 -256 286 -437 418 -461 33 -6
37 -11 43 -43 3 -21 6 -87 6 -148 0 -90 -3 -113 -15 -118 -11 -4 -15 -23 -15
-81 l0 -75 126 0 c105 0 125 2 121 14 -3 8 -9 43 -13 78 -4 35 -13 68 -19 73
-9 7 -15 64 -18 178 l-6 168 88 87 c156 154 245 336 245 502 1 71 -4 94 -25
140 -14 30 -37 69 -52 85 -31 38 -111 82 -181 102 -50 14 -272 25 -331 17z
m-295 -147 c0 -2 -10 -12 -22 -23 l-23 -19 19 23 c18 21 26 27 26 19z m166
-233 c-5 -13 -10 -14 -18 -6 -6 6 -8 18 -4 28 5 13 10 14 18 6 6 -6 8 -18 4
-28z m174 5 c0 -11 -4 -17 -10 -14 -5 3 -10 13 -10 21 0 8 5 14 10 14 6 0 10
-9 10 -21z m-20 -321 l-1 -63 -19 24 c-22 26 -27 87 -7 94 25 11 27 6 27 -55z"/>
</g>
</svg>
